<svg xmlns="http://www.w3.org/2000/svg" version="1.1" xmlns:xlink="http://www.w3.org/1999/xlink" xmlns:svgjs="http://svgjs.dev/svgjs" width="1500" height="1500" viewBox="0 0 1500 1500"><rect width="1500" height="1500" fill="#000000"></rect><g transform="matrix(0.6666666666666666,0,0,0.6666666666666666,249.39393939393938,688.8322951109195)"><svg viewBox="0 0 396 49" data-background-color="#090909" preserveAspectRatio="xMidYMid meet" height="185" width="1500" xmlns="http://www.w3.org/2000/svg" xmlns:xlink="http://www.w3.org/1999/xlink"><g id="tight-bounds" transform="matrix(1,0,0,1,0.2400000000000091,-0.19823616568962166)"><svg viewBox="0 0 395.52 49.396472331379236" height="49.396472331379236" width="395.52"><g><svg viewBox="0 0 395.52000000000004 49.39647233137924" height="49.396472331379236" width="395.52"><g><svg viewBox="0 0 395.52000000000004 49.39647233137924" height="49.39647233137924" width="395.52000000000004"><g id="textblocktransform"><svg viewBox="0 0 395.52000000000004 49.39647233137924" height="49.39647233137924" width="395.52000000000004" id="textblock"><g><svg viewBox="0 0 395.52000000000004 49.39647233137924" height="49.39647233137924" width="395.52000000000004"><g transform="matrix(1,0,0,1,0,0)"><svg width="395.52000000000004" viewBox="4.25 -36 291.02625 36.35" height="49.39647233137924" data-palette-color="#796952"><path d="M8.25-27.1L8.25 0 4.25 0 4.25-35 8.65-35 21.65-5.5 34.6-35 38.95-35 38.95 0 34.95 0 34.95-27.1 23.05 0 20.2 0 8.25-27.1ZM53-30.1L62.4-35.75 62.4-32.6 53-27.4 53-30.1ZM57.85 0.35L57.85 0.35Q54.3 0.35 51.5-1.2 48.7-2.75 47.1-5.63 45.5-8.5 45.5-12.45L45.5-12.45Q45.5-16.45 47.12-19.35 48.75-22.25 51.57-23.8 54.4-25.35 57.95-25.35L57.95-25.35Q61.5-25.35 64.32-23.8 67.15-22.25 68.77-19.38 70.4-16.5 70.4-12.55L70.4-12.55Q70.4-8.55 68.75-5.65 67.1-2.75 64.25-1.2 61.4 0.35 57.85 0.35ZM57.8-3.2L57.8-3.2Q60-3.2 61.95-4.17 63.9-5.15 65.12-7.23 66.35-9.3 66.35-12.5L66.35-12.5Q66.35-15.75 65.15-17.8 63.95-19.85 62.02-20.83 60.1-21.8 57.9-21.8L57.9-21.8Q55.7-21.8 53.8-20.83 51.9-19.85 50.72-17.78 49.55-15.7 49.55-12.5L49.55-12.5Q49.55-9.25 50.7-7.2 51.85-5.15 53.72-4.17 55.6-3.2 57.8-3.2ZM76.55 0L76.55-25 80-25 80.2-21.45Q81.4-23.3 83.35-24.33 85.3-25.35 87.9-25.35L87.9-25.35Q90.75-25.35 92.9-24.13 95.05-22.9 96.25-20.48 97.45-18.05 97.45-14.4L97.45-14.4 97.45 0 93.7 0 93.7-13.95Q93.7-17.85 92.02-19.88 90.35-21.9 87.2-21.9L87.2-21.9Q83.95-21.9 82.12-19.75 80.3-17.6 80.3-13.4L80.3-13.4 80.3 0 76.55 0ZM105.44 0L105.44-25 109.14-25 109.14 0 105.44 0ZM107.34-30L107.34-30Q106.19-30 105.44-30.75 104.69-31.5 104.69-32.6L104.69-32.6Q104.69-33.75 105.44-34.5 106.19-35.25 107.34-35.25L107.34-35.25Q108.39-35.25 109.17-34.5 109.94-33.75 109.94-32.6L109.94-32.6Q109.94-31.5 109.17-30.75 108.39-30 107.34-30ZM128.24 0.35L128.24 0.35Q124.59 0.35 121.84-1.25 119.09-2.85 117.57-5.73 116.04-8.6 116.04-12.4L116.04-12.4Q116.04-16.25 117.57-19.18 119.09-22.1 121.84-23.73 124.59-25.35 128.24-25.35L128.24-25.35Q132.09-25.35 134.99-23.58 137.89-21.8 139.19-18.65L139.19-18.65 135.74-17.45Q134.99-19.45 133.02-20.63 131.04-21.8 128.44-21.8L128.44-21.8Q125.89-21.8 124.02-20.65 122.14-19.5 121.12-17.4 120.09-15.3 120.09-12.45L120.09-12.45Q120.09-8.25 122.34-5.73 124.59-3.2 128.34-3.2L128.34-3.2Q130.89-3.2 132.89-4.35 134.89-5.5 135.84-7.45L135.84-7.45 139.24-6.25Q137.89-3.15 134.99-1.4 132.09 0.35 128.24 0.35ZM164.49 0L161.04 0 160.74-4.5Q159.69-2.2 157.64-0.93 155.59 0.35 152.44 0.35L152.44 0.35Q149.74 0.35 147.84-0.5 145.94-1.35 144.91-2.93 143.89-4.5 143.89-6.65L143.89-6.65Q143.89-9.8 146.24-11.83 148.59-13.85 153.04-14.3L153.04-14.3 160.74-15.15 160.74-17.15Q160.74-19.25 159.19-20.53 157.64-21.8 154.99-21.8L154.99-21.8Q152.39-21.8 150.66-20.6 148.94-19.4 148.29-17.15L148.29-17.15 144.89-18.35Q145.89-21.65 148.56-23.5 151.24-25.35 155.09-25.35L155.09-25.35Q159.54-25.35 162.01-23.08 164.49-20.8 164.49-16.9L164.49-16.9 164.49 0ZM160.74-11.15L160.74-11.95 152.99-11.05Q150.49-10.75 149.19-9.68 147.89-8.6 147.89-6.85L147.89-6.85Q147.89-5.1 149.16-4.05 150.44-3 152.84-3L152.84-3Q155.59-3 157.34-4.1 159.09-5.2 159.91-7.08 160.74-8.95 160.74-11.15L160.74-11.15ZM184.08-17.5L184.08-17.5Q184.08-21.45 185.38-24.73 186.68-28 189.06-30.38 191.43-32.75 194.56-34.05 197.68-35.35 201.38-35.35L201.38-35.35Q206.78-35.35 210.86-32.85 214.93-30.35 217.03-25.75L217.03-25.75 213.78-24.55Q212.63-27 210.73-28.58 208.83-30.15 206.43-30.95 204.03-31.75 201.38-31.75L201.38-31.75Q197.63-31.75 194.63-30.05 191.63-28.35 189.91-25.15 188.18-21.95 188.18-17.5L188.18-17.5Q188.18-13.1 189.91-9.9 191.63-6.7 194.63-4.98 197.63-3.25 201.38-3.25L201.38-3.25Q204.08-3.25 206.53-4.1 208.98-4.95 210.96-6.75 212.93-8.55 214.13-11.25L214.13-11.25 217.38-10.05Q215.23-4.9 211.08-2.27 206.93 0.35 201.38 0.35L201.38 0.35Q197.68 0.35 194.56-0.95 191.43-2.25 189.06-4.65 186.68-7.05 185.38-10.33 184.08-13.6 184.08-17.5ZM243.13 0L239.68 0 239.38-4.5Q238.33-2.2 236.28-0.93 234.23 0.35 231.08 0.35L231.08 0.35Q228.38 0.35 226.48-0.5 224.58-1.35 223.56-2.93 222.53-4.5 222.53-6.65L222.53-6.65Q222.53-9.8 224.88-11.83 227.23-13.85 231.68-14.3L231.68-14.3 239.38-15.15 239.38-17.15Q239.38-19.25 237.83-20.53 236.28-21.8 233.63-21.8L233.63-21.8Q231.03-21.8 229.31-20.6 227.58-19.4 226.93-17.15L226.93-17.15 223.53-18.35Q224.53-21.65 227.21-23.5 229.88-25.35 233.73-25.35L233.73-25.35Q238.18-25.35 240.66-23.08 243.13-20.8 243.13-16.9L243.13-16.9 243.13 0ZM239.38-11.15L239.38-11.95 231.63-11.05Q229.13-10.75 227.83-9.68 226.53-8.6 226.53-6.85L226.53-6.85Q226.53-5.1 227.81-4.05 229.08-3 231.48-3L231.48-3Q234.23-3 235.98-4.1 237.73-5.2 238.56-7.08 239.38-8.95 239.38-11.15L239.38-11.15ZM250.43 0L250.43-36 254.18-36 254.18 0 250.43 0ZM261.83 0L261.83-36 265.58-36 265.58 0 261.83 0ZM283.72 0.35L283.72 0.35Q280.22 0.35 277.5-1.35 274.77-3.05 273.22-6 271.67-8.95 271.67-12.75L271.67-12.75Q271.67-16.4 273.22-19.25 274.77-22.1 277.47-23.73 280.17-25.35 283.62-25.35L283.62-25.35Q287.02-25.35 289.7-23.85 292.37-22.35 293.87-19.7 295.37-17.05 295.27-13.65L295.27-13.65Q295.27-13.1 295.22-12.5 295.17-11.9 295.12-11.2L295.12-11.2 275.77-11.2Q275.87-8.85 276.92-7.05 277.97-5.25 279.7-4.23 281.42-3.2 283.62-3.2L283.62-3.2Q286.52-3.2 288.55-4.3 290.57-5.4 291.47-7.45L291.47-7.45 294.72-6.15Q293.22-3 290.37-1.33 287.52 0.35 283.72 0.35ZM275.82-14.45L291.17-14.45Q291.22-16.6 290.25-18.25 289.27-19.9 287.52-20.85 285.77-21.8 283.47-21.8L283.47-21.8Q281.47-21.8 279.82-20.85 278.17-19.9 277.1-18.23 276.02-16.55 275.82-14.45L275.82-14.45Z" opacity="1" transform="matrix(1,0,0,1,0,0)" fill="#ffffff" class="wordmark-text-0" data-fill-palette-color="primary" id="text-0"></path></svg></g></svg></g></svg></g></svg></g></svg></g><defs></defs></svg><rect width="395.52" height="49.396472331379236" fill="none" stroke="none" visibility="hidden"></rect></g></svg></g></svg>