<svg xmlns="http://www.w3.org/2000/svg" version="1.1" xmlns:xlink="http://www.w3.org/1999/xlink" xmlns:svgjs="http://svgjs.dev/svgjs" width="1500" height="1500" viewBox="0 0 1500 1500"><rect width="1500" height="1500" fill="#ece5d5"></rect><g transform="matrix(0.6666666666666666,0,0,0.6666666666666666,249.78425655976673,249.78425655976673)"><svg viewBox="0 0 343 343" data-background-color="#ece5d5" preserveAspectRatio="xMidYMid meet" height="1500" width="1500" xmlns="http://www.w3.org/2000/svg" xmlns:xlink="http://www.w3.org/1999/xlink"><g id="tight-bounds" transform="matrix(1,0,0,1,0.07400000000001228,0.07400000000001228)"><svg viewBox="0 0 342.8515585177538 342.8515585177538" height="342.8515585177538" width="342.8515585177538"><g><svg></svg></g><g><svg viewBox="0 0 342.8515585177538 342.8515585177538" height="342.8515585177538" width="342.8515585177538"><g><path d="M0 171.426c0-94.676 76.75-171.426 171.426-171.426 94.676 0 171.426 76.75 171.426 171.426 0 94.676-76.75 171.426-171.426 171.426-94.676 0-171.426-76.75-171.426-171.426zM171.426 340.54c93.399 0 169.114-75.715 169.114-169.114 0-93.399-75.715-169.114-169.114-169.115-93.399 0-169.114 75.715-169.115 169.115 0 93.399 75.715 169.114 169.115 169.114z" data-fill-palette-color="tertiary" fill="#c0b4ac" stroke="transparent"></path><ellipse rx="164.56874808852183" ry="164.56874808852183" cx="171.4257792588769" cy="171.4257792588769" fill="#c0b4ac" stroke="transparent" stroke-width="0" fill-opacity="1" data-fill-palette-color="tertiary"></ellipse></g><g transform="matrix(1,0,0,1,64.84655864529836,156.90302111246973)"><svg viewBox="0 0 213.15844122715708 29.04551629281435" height="29.04551629281435" width="213.15844122715708"><g><svg viewBox="0 0 274.60343206255476 37.41816844839783" height="29.04551629281435" width="213.15844122715708"><g transform="matrix(1,0,0,1,61.44499083539767,2.1997091366632517)"><svg viewBox="0 0 213.1584412271571 33.018750175071325" height="33.018750175071325" width="213.1584412271571"><g id="textblocktransform"><svg viewBox="0 0 213.1584412271571 33.018750175071325" height="33.018750175071325" width="213.1584412271571" id="textblock"><g><svg viewBox="0 0 213.1584412271571 33.018750175071325" height="33.018750175071325" width="213.1584412271571"><g transform="matrix(1,0,0,1,0,0)"><svg width="213.1584412271571" viewBox="3.9 -35.5 233.01999999999998 36.1" height="33.018750175071325" data-palette-color="#ece5d5"><path d="M27.9 0L27.9-26.75 18.8 0 15.75 0 6.7-26.75 6.7 0 3.9 0 3.9-35 6.7-35 17.25-4.3 27.9-35 30.7-35 30.7 0 27.9 0ZM46.65-26.9L49.2-32.8Q49.7-33.95 50.9-33.95L50.9-33.95Q51.65-33.95 52.1-33.45 52.55-32.95 52.55-32.35L52.55-32.35Q52.55-31.9 52.3-31.5L52.3-31.5 48.85-26.9 46.65-26.9ZM57.25-9.2Q57.25-5 54.95-2.25 52.65 0.5 48 0.5L48 0.5Q43.35 0.5 40.97-2.27 38.6-5.05 38.6-9.2L38.6-9.2 38.6-15.8Q38.6-20.55 41.02-23.08 43.45-25.6 48-25.6L48-25.6Q52.35-25.6 54.8-22.98 57.25-20.35 57.25-15.8L57.25-15.8 57.25-9.2ZM54.45-15.8Q54.45-19.55 52.72-21.3 51-23.05 48-23.05L48-23.05Q44.9-23.05 43.15-21.3 41.4-19.55 41.4-15.8L41.4-15.8 41.4-8.7Q41.4-5.7 43.17-3.85 44.95-2 48-2L48-2Q51.1-2 52.77-3.83 54.45-5.65 54.45-8.7L54.45-8.7 54.45-15.8ZM77.8 0L77.8-17.15Q77.8-20.2 76.02-21.58 74.25-22.95 71.45-22.95L71.45-22.95Q69.75-22.95 68-22.48 66.25-22 64.9-21.25L64.9-21.25 64.9 0 62.1 0 62.1-25.05 64.9-25.05 64.7-23.35Q65.9-24.4 67.75-24.93 69.6-25.45 71.6-25.45L71.6-25.45Q74.35-25.45 76.3-24.55L76.3-24.55Q78.3-23.65 79.42-21.85 80.55-20.05 80.55-17.3L80.55-17.3 80.55 0 77.8 0ZM89.49-32.15Q88.84-32.15 88.32-32.68 87.79-33.2 87.79-33.85L87.79-33.85Q87.79-34.5 88.29-35 88.79-35.5 89.49-35.5L89.49-35.5Q90.19-35.5 90.67-35.02 91.14-34.55 91.14-33.85L91.14-33.85Q91.14-33.15 90.64-32.65 90.14-32.15 89.49-32.15L89.49-32.15ZM88.04 0L88.04-25.05 90.84-25.05 90.84 0 88.04 0ZM113.04-0.3Q109.94 0.5 107.04 0.5L107.04 0.5Q104.34 0.5 102.54-0.1L102.54-0.1Q99.59-1.1 98.27-3.18 96.94-5.25 96.94-9L96.94-9 96.94-15.4Q96.94-20.35 99.54-22.93 102.14-25.5 106.24-25.5L106.24-25.5Q109.49-25.5 112.94-23.9L112.94-23.9 112.14-21.85Q109.29-23 106.64-23L106.64-23Q103.54-23 101.64-21.23 99.74-19.45 99.74-15.7L99.74-15.7 99.74-8.45Q99.74-5 101.82-3.45 103.89-1.9 107.34-1.9L107.34-1.9Q109.59-1.9 112.44-2.55L112.44-2.55 113.04-0.3ZM135.39 0Q129.99 0.55 127.59 0.55L127.59 0.55Q122.34 0.55 119.24-1.4 116.14-3.35 116.14-8.45L116.14-8.45 116.14-12.6Q116.14-17.55 119.59-19.25L119.59-19.25Q121.24-20.1 123.79-20.1L123.79-20.1Q126.14-20.1 128.54-19.33 130.94-18.55 132.59-17.3L132.59-17.3Q132.59-20.05 130.99-21.68 129.39-23.3 124.84-23.3L124.84-23.3 124.99-25.45Q129.79-25.45 132.06-23.93 134.34-22.4 134.86-20.3 135.39-18.2 135.39-14.9L135.39-14.9 135.39 0ZM132.59-15.15Q130.54-16.1 128.21-16.8 125.89-17.5 123.94-17.5L123.94-17.5Q118.89-17.5 118.89-12.45L118.89-12.45 118.89-8.1Q118.89-4.85 121.14-3.38 123.39-1.9 127.54-1.9L127.54-1.9Q129.69-1.9 132.59-2.3L132.59-2.3 132.59-15.15ZM172.43-1.15Q167.98 0.5 164.13 0.5L164.13 0.5Q159.78 0.5 157.08-1.8 154.38-4.1 154.38-9.15L154.38-9.15 154.38-25.2Q154.38-29 155.46-30.95 156.53-32.9 158.73-34.25L158.73-34.25Q160.93-35.5 164.13-35.5L164.13-35.5Q168.03-35.5 171.18-33.85L171.18-33.85 170.38-31.95Q167.53-33 164.98-33L164.98-33Q161.93-33 159.56-31.5 157.18-30 157.18-25.65L157.18-25.65 157.18-9.25Q157.18-5.8 158.98-3.93 160.78-2.05 164.38-2.05L164.38-2.05Q167.53-2.05 171.83-3.5L171.83-3.5 172.43-1.15ZM193.98 0Q188.58 0.55 186.18 0.55L186.18 0.55Q180.93 0.55 177.83-1.4 174.73-3.35 174.73-8.45L174.73-8.45 174.73-12.6Q174.73-17.55 178.18-19.25L178.18-19.25Q179.83-20.1 182.38-20.1L182.38-20.1Q184.73-20.1 187.13-19.33 189.53-18.55 191.18-17.3L191.18-17.3Q191.18-20.05 189.58-21.68 187.98-23.3 183.43-23.3L183.43-23.3 183.58-25.45Q188.38-25.45 190.66-23.93 192.93-22.4 193.46-20.3 193.98-18.2 193.98-14.9L193.98-14.9 193.98 0ZM191.18-15.15Q189.13-16.1 186.81-16.8 184.48-17.5 182.53-17.5L182.53-17.5Q177.48-17.5 177.48-12.45L177.48-12.45 177.48-8.1Q177.48-4.85 179.73-3.38 181.98-1.9 186.13-1.9L186.13-1.9Q188.28-1.9 191.18-2.3L191.18-2.3 191.18-15.15ZM199.68 0L199.68-35 202.48-35 202.48 0 199.68 0ZM210.38 0L210.38-35 213.18-35 213.18 0 210.38 0ZM235.67-1.75Q233.87-0.6 231.57 0 229.27 0.6 226.97 0.6L226.97 0.6Q223.27 0.6 221.1-1.23 218.92-3.05 218.92-6.7L218.92-6.7 218.92-16.95Q218.92-21 221.45-23.25 223.97-25.5 228.12-25.5L228.12-25.5Q232.27-25.5 234.6-23.28 236.92-21.05 236.92-17.1L236.92-17.1 236.92-10.6 221.72-9.75 221.72-6.7Q221.72-4.3 223.27-3.1 224.82-1.9 227.32-1.9L227.32-1.9Q230.82-1.9 234.57-3.9L234.57-3.9 235.67-1.75ZM234.12-17.45Q234.12-20.55 232.17-21.83 230.22-23.1 228.07-23.1L228.07-23.1Q225.32-23.1 223.52-21.6 221.72-20.1 221.72-16.9L221.72-16.9 221.72-12.5 234.12-13.1 234.12-17.45Z" opacity="1" transform="matrix(1,0,0,1,0,0)" fill="#ece5d5" class="wordmark-text-0" data-fill-palette-color="quaternary" id="text-0"></path></svg></g></svg></g></svg></g></svg></g><g><svg viewBox="0 0 53.65005636906753 37.41816844839783" height="37.41816844839783" width="53.65005636906753"><g><svg xmlns="http://www.w3.org/2000/svg" xmlns:xlink="http://www.w3.org/1999/xlink" version="1.1" x="0" y="0" viewBox="1.012 8.212 47.625 33.215999999999994" enable-background="new 0 0 50 50" xml:space="preserve" height="37.41816844839783" width="53.65005636906753" class="icon-icon-0" data-fill-palette-color="quaternary" id="icon-0"><g fill="#ece5d5" data-fill-palette-color="quaternary"><polygon fill="#ece5d5" points="19.937,10.508 17.653,8.212 1.012,24.792 17.647,41.428 19.94,39.135 5.603,24.794  " data-fill-palette-color="quaternary"></polygon><polygon fill="#ece5d5" points="29.714,10.508 44.046,24.794 29.711,39.135 32.004,41.428 48.637,24.792 32.001,8.212  " data-fill-palette-color="quaternary"></polygon></g></svg></g></svg></g></svg></g></svg></g></svg></g><defs></defs></svg><rect width="342.8515585177538" height="342.8515585177538" fill="none" stroke="none" visibility="hidden"></rect></g></svg></g></svg>